<mxfile host="Electron" agent="Mozilla/5.0 (Macintosh; Intel Mac OS X 10_15_7) AppleWebKit/537.36 (KHTML, like Gecko) draw.io/26.2.2 Chrome/134.0.6998.178 Electron/35.1.2 Safari/537.36" version="26.2.2">
  <diagram name="Page-1" id="J8aPvBlsK1GiFd-yu5tL">
    <mxGraphModel dx="2988" dy="1624" grid="1" gridSize="10" guides="1" tooltips="1" connect="1" arrows="1" fold="1" page="0" pageScale="1" pageWidth="827" pageHeight="1169" math="0" shadow="0">
      <root>
        <mxCell id="0" />
        <mxCell id="1" parent="0" />
        <mxCell id="zbgmXJrtY50v7vXIDk3Z-15" value="" style="group" vertex="1" connectable="0" parent="1">
          <mxGeometry x="-41" y="680" width="280" height="160" as="geometry" />
        </mxCell>
        <mxCell id="zbgmXJrtY50v7vXIDk3Z-11" value="Iterative Denoising" style="rounded=1;whiteSpace=wrap;html=1;fillColor=#ffe6cc;strokeColor=#d79b00;verticalAlign=top;spacingTop=5;fontStyle=1;fontSize=16;absoluteArcSize=1;arcSize=12;" vertex="1" parent="zbgmXJrtY50v7vXIDk3Z-15">
          <mxGeometry width="280" height="160" as="geometry" />
        </mxCell>
        <mxCell id="zbgmXJrtY50v7vXIDk3Z-12" value="&lt;ul&gt;&lt;li&gt;20-50 denoising steps&lt;/li&gt;&lt;li&gt;From noisy to clean&lt;/li&gt;&lt;li&gt;Guidance Scale controls adherence&lt;/li&gt;&lt;/ul&gt;" style="text;html=1;align=left;verticalAlign=top;whiteSpace=wrap;rounded=0;" vertex="1" parent="zbgmXJrtY50v7vXIDk3Z-15">
          <mxGeometry x="1" y="40" width="279" height="120" as="geometry" />
        </mxCell>
        <mxCell id="zbgmXJrtY50v7vXIDk3Z-16" value="" style="group" vertex="1" connectable="0" parent="1">
          <mxGeometry x="400" y="1000" width="280" height="160" as="geometry" />
        </mxCell>
        <mxCell id="zbgmXJrtY50v7vXIDk3Z-9" value="VAE Decoder" style="rounded=1;whiteSpace=wrap;html=1;fillColor=#fff2cc;strokeColor=#d6b656;verticalAlign=top;spacingTop=5;fontStyle=1;fontSize=16;absoluteArcSize=1;arcSize=12;" vertex="1" parent="zbgmXJrtY50v7vXIDk3Z-16">
          <mxGeometry width="280" height="160" as="geometry" />
        </mxCell>
        <mxCell id="zbgmXJrtY50v7vXIDk3Z-10" value="Latent to Pixel Space" style="text;html=1;align=center;verticalAlign=top;whiteSpace=wrap;rounded=0;" vertex="1" parent="zbgmXJrtY50v7vXIDk3Z-16">
          <mxGeometry x="1" y="40" width="279" height="120" as="geometry" />
        </mxCell>
        <mxCell id="zbgmXJrtY50v7vXIDk3Z-17" value="" style="group" vertex="1" connectable="0" parent="1">
          <mxGeometry x="-480" y="680" width="281" height="160" as="geometry" />
        </mxCell>
        <mxCell id="XI88yVdJsSXSmaiRrIyM-56" value="Conditioning Options" style="rounded=1;whiteSpace=wrap;html=1;fillColor=#e1d5e7;strokeColor=#9673a6;verticalAlign=top;fontSize=16;fontStyle=1;spacingTop=5;absoluteArcSize=1;arcSize=12;" parent="zbgmXJrtY50v7vXIDk3Z-17" vertex="1">
          <mxGeometry x="1" width="280" height="160" as="geometry" />
        </mxCell>
        <mxCell id="zbgmXJrtY50v7vXIDk3Z-7" value="&lt;ul&gt;&lt;li&gt;Negative Prompts&lt;/li&gt;&lt;li&gt;Resolution Control&lt;/li&gt;&lt;li&gt;LoRA Fine-tuning&lt;/li&gt;&lt;li&gt;Inpainting / Outpainting&lt;/li&gt;&lt;/ul&gt;" style="text;html=1;align=left;verticalAlign=top;whiteSpace=wrap;rounded=0;" vertex="1" parent="zbgmXJrtY50v7vXIDk3Z-17">
          <mxGeometry y="40" width="280" height="120" as="geometry" />
        </mxCell>
        <mxCell id="zbgmXJrtY50v7vXIDk3Z-18" value="" style="group" vertex="1" connectable="0" parent="1">
          <mxGeometry x="400" y="680" width="280" height="160" as="geometry" />
        </mxCell>
        <mxCell id="XI88yVdJsSXSmaiRrIyM-1" value="&lt;font style=&quot;font-size: 16px;&quot;&gt;U-Net Denoising&lt;/font&gt;" style="rounded=1;whiteSpace=wrap;html=1;fillColor=#dae8fc;strokeColor=#6c8ebf;spacingTop=5;fontStyle=1;verticalAlign=top;absoluteArcSize=1;arcSize=12;" parent="zbgmXJrtY50v7vXIDk3Z-18" vertex="1">
          <mxGeometry width="280" height="160" as="geometry" />
        </mxCell>
        <mxCell id="zbgmXJrtY50v7vXIDk3Z-8" value="&lt;ul&gt;&lt;li&gt;Predicts noise to remove&lt;/li&gt;&lt;li&gt;Conditioned on text embedding&lt;/li&gt;&lt;li&gt;Primary + Refiner Model (SDXL)&lt;/li&gt;&lt;/ul&gt;" style="text;html=1;align=left;verticalAlign=top;whiteSpace=wrap;rounded=0;spacing=2;" vertex="1" parent="zbgmXJrtY50v7vXIDk3Z-18">
          <mxGeometry y="40" width="280" height="120" as="geometry" />
        </mxCell>
        <mxCell id="zbgmXJrtY50v7vXIDk3Z-21" value="" style="group" vertex="1" connectable="0" parent="1">
          <mxGeometry x="760" y="360" width="280" height="160" as="geometry" />
        </mxCell>
        <mxCell id="XI88yVdJsSXSmaiRrIyM-4" value="Diffusion Scheduler" style="rounded=1;whiteSpace=wrap;html=1;fillColor=#e1d5e7;strokeColor=#9673a6;verticalAlign=top;fontStyle=1;fontSize=16;spacingTop=5;absoluteArcSize=1;arcSize=12;" parent="zbgmXJrtY50v7vXIDk3Z-21" vertex="1">
          <mxGeometry width="280" height="160" as="geometry" />
        </mxCell>
        <mxCell id="zbgmXJrtY50v7vXIDk3Z-5" value="Time Step Sampling" style="text;html=1;align=center;verticalAlign=top;whiteSpace=wrap;rounded=0;" vertex="1" parent="zbgmXJrtY50v7vXIDk3Z-21">
          <mxGeometry y="40" width="280" height="120" as="geometry" />
        </mxCell>
        <mxCell id="zbgmXJrtY50v7vXIDk3Z-22" value="" style="group;fillColor=#f5f5f5;fontColor=#333333;strokeColor=#666666;" vertex="1" connectable="0" parent="1">
          <mxGeometry x="1120" y="281" width="280" height="320" as="geometry" />
        </mxCell>
        <mxCell id="XI88yVdJsSXSmaiRrIyM-55" value="SDXL Specific Features" style="rounded=1;whiteSpace=wrap;html=1;fillColor=#f5f5f5;strokeColor=#666666;verticalAlign=top;fontStyle=1;fontSize=16;absoluteArcSize=1;arcSize=12;fontColor=#333333;" parent="zbgmXJrtY50v7vXIDk3Z-22" vertex="1">
          <mxGeometry width="280" height="320" as="geometry" />
        </mxCell>
        <mxCell id="zbgmXJrtY50v7vXIDk3Z-6" value="&lt;ul&gt;&lt;li&gt;Dual Text Encoders&lt;/li&gt;&lt;li&gt;Base + Refiner Architecture&lt;/li&gt;&lt;li&gt;Higher Resolution (1024Ã—1024)&lt;/li&gt;&lt;li&gt;Better Composition &amp;amp; Details&lt;/li&gt;&lt;li&gt;Improved Text Rendering&lt;/li&gt;&lt;li&gt;Enhanced Aesthetic Quality&lt;/li&gt;&lt;/ul&gt;" style="text;html=1;align=left;verticalAlign=top;whiteSpace=wrap;rounded=0;spacingLeft=5;spacingRight=5;" vertex="1" parent="zbgmXJrtY50v7vXIDk3Z-22">
          <mxGeometry y="39" width="280" height="120" as="geometry" />
        </mxCell>
        <mxCell id="zbgmXJrtY50v7vXIDk3Z-24" style="edgeStyle=orthogonalEdgeStyle;rounded=0;orthogonalLoop=1;jettySize=auto;html=1;strokeWidth=4;endArrow=block;endFill=1;" edge="1" parent="1" source="XI88yVdJsSXSmaiRrIyM-5" target="XI88yVdJsSXSmaiRrIyM-2">
          <mxGeometry relative="1" as="geometry" />
        </mxCell>
        <mxCell id="zbgmXJrtY50v7vXIDk3Z-25" value="" style="group" vertex="1" connectable="0" parent="1">
          <mxGeometry y="40" width="360" height="160" as="geometry" />
        </mxCell>
        <mxCell id="XI88yVdJsSXSmaiRrIyM-5" value="Text Prompt Input" style="rounded=1;whiteSpace=wrap;html=1;fillColor=#dae8fc;strokeColor=#6c8ebf;verticalAlign=top;fontSize=16;fontStyle=1;spacingTop=5;absoluteArcSize=1;arcSize=12;" parent="zbgmXJrtY50v7vXIDk3Z-25" vertex="1">
          <mxGeometry x="40" width="280" height="160" as="geometry" />
        </mxCell>
        <mxCell id="zbgmXJrtY50v7vXIDk3Z-2" value="Description of image to generate." style="text;html=1;align=center;verticalAlign=top;whiteSpace=wrap;rounded=0;" vertex="1" parent="zbgmXJrtY50v7vXIDk3Z-25">
          <mxGeometry x="40" y="40" width="240" height="80" as="geometry" />
        </mxCell>
        <mxCell id="zbgmXJrtY50v7vXIDk3Z-1" value="&#39;A beautiful sunset over mountains&#39;" style="rounded=1;whiteSpace=wrap;html=1;fillColor=#f5f5f5;fontColor=#333333;strokeColor=#666666;fontFamily=Courier New;arcSize=12;absoluteArcSize=1;" vertex="1" parent="zbgmXJrtY50v7vXIDk3Z-25">
          <mxGeometry y="80" width="360" height="40" as="geometry" />
        </mxCell>
        <mxCell id="zbgmXJrtY50v7vXIDk3Z-26" value="" style="group" vertex="1" connectable="0" parent="1">
          <mxGeometry x="39" y="360" width="280" height="159" as="geometry" />
        </mxCell>
        <mxCell id="XI88yVdJsSXSmaiRrIyM-2" value="Text Encoding" style="rounded=1;whiteSpace=wrap;html=1;fillColor=#d5e8d4;strokeColor=#82b366;fontSize=16;fontStyle=1;spacingTop=5;verticalAlign=top;absoluteArcSize=1;arcSize=12;container=0;" parent="zbgmXJrtY50v7vXIDk3Z-26" vertex="1">
          <mxGeometry width="280" height="159" as="geometry" />
        </mxCell>
        <mxCell id="zbgmXJrtY50v7vXIDk3Z-3" value="CLIP Text Encoder(s)" style="text;html=1;align=center;verticalAlign=top;whiteSpace=wrap;rounded=0;container=0;" vertex="1" parent="zbgmXJrtY50v7vXIDk3Z-26">
          <mxGeometry y="39" width="279" height="120" as="geometry" />
        </mxCell>
        <mxCell id="zbgmXJrtY50v7vXIDk3Z-27" value="" style="group" vertex="1" connectable="0" parent="1">
          <mxGeometry x="400" y="360" width="280" height="159" as="geometry" />
        </mxCell>
        <mxCell id="XI88yVdJsSXSmaiRrIyM-3" value="Random Noise Generation" style="rounded=1;whiteSpace=wrap;html=1;fillColor=#ffe6cc;strokeColor=#d79b00;verticalAlign=top;spacingTop=5;fontStyle=1;fontSize=16;absoluteArcSize=1;arcSize=12;container=0;" parent="zbgmXJrtY50v7vXIDk3Z-27" vertex="1">
          <mxGeometry width="280" height="159" as="geometry" />
        </mxCell>
        <mxCell id="zbgmXJrtY50v7vXIDk3Z-4" value="Creating initial Gaussian noise" style="text;html=1;align=center;verticalAlign=top;whiteSpace=wrap;rounded=0;container=0;" vertex="1" parent="zbgmXJrtY50v7vXIDk3Z-27">
          <mxGeometry y="39" width="280" height="120" as="geometry" />
        </mxCell>
        <mxCell id="zbgmXJrtY50v7vXIDk3Z-28" style="edgeStyle=orthogonalEdgeStyle;rounded=1;orthogonalLoop=1;jettySize=auto;html=1;strokeWidth=4;endArrow=block;endFill=1;curved=0;" edge="1" parent="1" source="zbgmXJrtY50v7vXIDk3Z-4" target="XI88yVdJsSXSmaiRrIyM-1">
          <mxGeometry relative="1" as="geometry" />
        </mxCell>
        <mxCell id="zbgmXJrtY50v7vXIDk3Z-29" style="edgeStyle=orthogonalEdgeStyle;rounded=1;orthogonalLoop=1;jettySize=auto;html=1;entryX=0.5;entryY=0;entryDx=0;entryDy=0;strokeWidth=4;endArrow=block;endFill=1;curved=0;" edge="1" parent="1" source="zbgmXJrtY50v7vXIDk3Z-3" target="XI88yVdJsSXSmaiRrIyM-1">
          <mxGeometry relative="1" as="geometry">
            <Array as="points">
              <mxPoint x="179" y="600" />
              <mxPoint x="540" y="600" />
            </Array>
          </mxGeometry>
        </mxCell>
        <mxCell id="zbgmXJrtY50v7vXIDk3Z-30" style="edgeStyle=orthogonalEdgeStyle;rounded=1;orthogonalLoop=1;jettySize=auto;html=1;entryX=0.5;entryY=0;entryDx=0;entryDy=0;strokeWidth=4;endArrow=block;endFill=1;curved=0;" edge="1" parent="1" source="zbgmXJrtY50v7vXIDk3Z-5" target="XI88yVdJsSXSmaiRrIyM-1">
          <mxGeometry relative="1" as="geometry">
            <Array as="points">
              <mxPoint x="900" y="600" />
              <mxPoint x="540" y="600" />
            </Array>
          </mxGeometry>
        </mxCell>
        <mxCell id="zbgmXJrtY50v7vXIDk3Z-31" style="edgeStyle=orthogonalEdgeStyle;rounded=1;orthogonalLoop=1;jettySize=auto;html=1;entryX=1;entryY=0;entryDx=0;entryDy=0;strokeWidth=4;endArrow=block;endFill=1;curved=0;dashed=1;dashPattern=1 1;" edge="1" parent="1" target="zbgmXJrtY50v7vXIDk3Z-8">
          <mxGeometry relative="1" as="geometry">
            <mxPoint x="1260" y="600" as="sourcePoint" />
            <Array as="points">
              <mxPoint x="1260" y="720" />
            </Array>
          </mxGeometry>
        </mxCell>
        <mxCell id="zbgmXJrtY50v7vXIDk3Z-32" style="edgeStyle=orthogonalEdgeStyle;rounded=1;orthogonalLoop=1;jettySize=auto;html=1;strokeWidth=4;endArrow=block;endFill=1;curved=0;" edge="1" parent="1" source="zbgmXJrtY50v7vXIDk3Z-8" target="zbgmXJrtY50v7vXIDk3Z-9">
          <mxGeometry relative="1" as="geometry">
            <Array as="points">
              <mxPoint x="540" y="1000" />
              <mxPoint x="540" y="1000" />
            </Array>
          </mxGeometry>
        </mxCell>
        <mxCell id="zbgmXJrtY50v7vXIDk3Z-33" style="edgeStyle=orthogonalEdgeStyle;rounded=1;orthogonalLoop=1;jettySize=auto;html=1;endArrow=block;endFill=1;startArrow=block;startFill=1;strokeWidth=4;curved=0;dashed=1;dashPattern=1 1;" edge="1" parent="1" source="zbgmXJrtY50v7vXIDk3Z-7" target="zbgmXJrtY50v7vXIDk3Z-11">
          <mxGeometry relative="1" as="geometry">
            <mxPoint x="220" y="990" as="targetPoint" />
            <Array as="points">
              <mxPoint x="-130" y="760" />
              <mxPoint x="-130" y="760" />
            </Array>
          </mxGeometry>
        </mxCell>
        <mxCell id="zbgmXJrtY50v7vXIDk3Z-34" style="edgeStyle=orthogonalEdgeStyle;rounded=1;orthogonalLoop=1;jettySize=auto;html=1;curved=0;strokeWidth=4;endArrow=block;endFill=1;startArrow=block;startFill=1;" edge="1" parent="1" source="XI88yVdJsSXSmaiRrIyM-1" target="zbgmXJrtY50v7vXIDk3Z-11">
          <mxGeometry relative="1" as="geometry">
            <Array as="points">
              <mxPoint x="410" y="760" />
              <mxPoint x="410" y="760" />
            </Array>
          </mxGeometry>
        </mxCell>
      </root>
    </mxGraphModel>
  </diagram>
</mxfile>
